<svg width="1080" height="1080" viewBox="0 0 1080 1080" fill="none" xmlns="http://www.w3.org/2000/svg">
<rect width="1080" height="1080" fill="white"/>
<path d="M248.03 712.694L132.195 630.818L161.979 722.484L175.911 726.84L182.85 724.586L184.63 730.064L140.805 744.303L139.026 738.825L157 730.064L161.979 722.484C161.979 722.484 127.317 707.547 120 687.5C112.237 666.23 132.195 630.818 132.195 630.818L106.897 620.061L101.054 621.959L99.2736 616.481L128.125 607.107L236.227 683.824L207.748 596.175C206.007 590.819 201.485 589.327 194.181 591.7L187.972 593.718L186.193 588.24L230.017 574L231.797 579.478L224.858 581.733C217.311 584.185 214.407 588.089 216.147 593.446L253.052 707.025C251.712 707.46 250.43 708.482 249.203 710.092C248.138 711.784 247.747 712.651 248.03 712.694Z" fill="black"/>
<path d="M342.828 680.679C326.881 685.861 311.553 684.044 296.846 675.23C282.26 666.376 272.356 653.914 267.135 637.845C263.892 627.863 262.958 617.534 264.334 606.858C265.711 596.182 268.759 586.511 273.48 577.844C278.323 569.137 284.25 561.491 291.262 554.906C298.396 548.281 305.859 543.703 313.65 541.172C329.475 536.03 344.742 537.866 359.45 546.68C374.157 555.495 384.122 567.937 389.343 584.006C393.219 595.936 393.791 608.671 391.057 622.21C388.283 635.628 382.544 647.788 373.84 658.692C365.217 669.434 354.88 676.763 342.828 680.679ZM349.64 663.123C362.909 658.811 372.466 650.323 378.31 637.657C384.276 624.952 384.925 611.416 380.258 597.052C375.59 582.687 366.102 571.504 351.793 563.502C337.606 555.46 323.025 553.872 308.052 558.737C295.27 562.89 285.512 571.175 278.78 583.591C272.129 595.846 270.88 608.365 275.034 621.147C280.413 637.703 290.053 650.183 303.955 658.586C317.977 666.95 333.206 668.463 349.64 663.123Z" fill="black"/>
<path d="M492.718 627.939L445.242 643.365L443.58 638.253L450.884 635.879C454.536 634.693 456.632 633.272 457.171 631.616C457.67 629.839 457.504 627.672 456.674 625.116L424.635 526.51C424.041 524.684 423.465 523.324 422.905 522.429C422.305 521.412 421.198 520.695 419.582 520.278C418.087 519.822 416.062 520.009 413.506 520.839L402.549 524.399C396.098 526.496 391.759 530.126 389.534 535.29C387.391 540.293 386.93 545.087 388.15 549.67L382.681 550.236L376.319 524.443L478.942 491.099L488.956 515.705L484.199 518.462C482.531 514.158 479.28 510.572 474.444 507.701C469.609 504.831 464.026 504.424 457.696 506.481L446.739 510.041C444.061 510.911 442.211 512.051 441.188 513.46C440.126 514.747 439.631 515.917 439.704 516.97C439.777 518.023 440.11 519.463 440.704 521.289L472.743 619.894C473.296 621.599 473.853 622.898 474.413 623.793C474.973 624.688 476.061 625.344 477.677 625.761C479.293 626.178 481.44 625.951 484.118 625.081L491.057 622.826L492.718 627.939Z" fill="black"/>
<path d="M578.606 600.033L532.225 615.103L530.563 609.99L536.772 607.973C540.424 606.786 542.56 605.284 543.181 603.468C543.802 601.651 543.678 599.403 542.808 596.725L510.057 495.928C509.187 493.25 507.966 491.359 506.396 490.254C504.826 489.149 502.215 489.19 498.563 490.376L492.354 492.394L490.693 487.281L537.074 472.211L538.735 477.324L531.796 479.578C528.144 480.765 526.008 482.267 525.387 484.083C524.766 485.9 524.89 488.148 525.761 490.826L558.511 591.623C559.382 594.301 560.602 596.192 562.172 597.297C563.742 598.402 566.354 598.361 570.006 597.174L576.945 594.92L578.606 600.033Z" fill="black"/>
<path d="M639.592 580.217L593.211 595.287L591.55 590.174L597.393 588.276C600.071 587.405 601.942 586.327 603.004 585.04C604.026 583.631 604.501 582.4 604.428 581.347C604.355 580.294 604.022 578.854 603.429 577.028L570.678 476.231C569.689 473.188 568.388 471.255 566.775 470.433C565.123 469.49 562.592 469.572 559.184 470.679L553.341 472.578L551.679 467.465L649.189 435.782L659.44 461.119L654.565 463.51C652.858 459.085 649.586 455.437 644.751 452.567C639.876 449.575 634.273 449.108 627.943 451.165L593.613 462.319C590.935 463.189 589.065 464.268 588.003 465.555C586.941 466.842 586.446 468.012 586.519 469.065C586.592 470.118 586.905 471.497 587.459 473.201L600.631 513.739L636.056 502.229C637.882 501.636 639.242 501.059 640.137 500.499C642.495 499.06 643.022 496.331 641.717 492.314L638.869 483.549L644.347 481.769L657.044 520.846L651.566 522.626L648.955 514.592C647.927 511.427 646.605 509.636 644.989 509.219C643.373 508.801 641.226 509.028 638.547 509.898L603.123 521.408L619.498 571.807C620.091 573.633 620.668 574.993 621.228 575.888C621.788 576.783 622.895 577.5 624.551 578.038C626.167 578.455 628.314 578.229 630.992 577.359L637.931 575.104L639.592 580.217Z" fill="black"/>
<path d="M748.726 544.757L702.345 559.827L700.684 554.715L706.892 552.697C710.544 551.511 712.681 550.009 713.302 548.192C713.923 546.375 713.798 544.128 712.928 541.45L680.177 440.653C679.307 437.975 678.087 436.083 676.516 434.978C674.946 433.874 672.335 433.914 668.683 435.101L662.474 437.118L660.813 432.005L707.194 416.935L708.855 422.048L701.917 424.303C698.264 425.489 696.128 426.991 695.507 428.808C694.886 430.625 695.011 432.872 695.881 435.55L728.632 536.347C729.502 539.025 730.722 540.917 732.292 542.022C733.863 543.127 736.474 543.086 740.126 541.899L747.065 539.644L748.726 544.757Z" fill="black"/>
<path d="M841.485 514.618L795.104 529.688L793.443 524.575L799.286 522.677C802.938 521.49 805.136 519.969 805.878 518.112C806.621 516.256 806.597 514.11 805.806 511.676L792.872 471.868L748.284 426.599C739.892 417.751 731.739 414.613 723.826 417.184L719.809 418.489L718.147 413.376L759.416 399.967L761.077 405.08L758.886 405.792C756.938 406.425 756.162 407.35 756.557 408.568C756.953 409.785 758.316 411.495 760.647 413.699L799.556 455.161L807.028 398.629C807.54 395.233 807.677 393.169 807.44 392.439C806.965 390.978 804.902 390.841 801.25 392.027L796.502 393.57L794.841 388.457L831.726 376.472L833.388 381.585L830.466 382.534C821.336 385.501 816.147 391.898 814.898 401.724L806.202 459.462L821.51 506.573C822.301 509.008 823.542 510.758 825.234 511.823C826.926 512.888 829.598 512.828 833.25 511.641L839.824 509.505L841.485 514.618Z" fill="black"/>
<path d="M987.545 467.16L940.799 482.349L939.137 477.236L944.981 475.338C950.337 473.597 952.461 471.023 951.354 467.614C951.196 467.127 949.915 465.256 947.511 461.999L924.533 433.53L878.517 448.482L876.551 483.44C876.63 483.684 876.699 485.344 876.756 488.42C876.774 491.376 876.961 493.401 877.317 494.496C877.634 495.47 878.521 495.922 879.979 495.852C881.436 495.783 884.356 495.036 888.739 493.612L891.661 492.662L893.322 497.775L857.532 509.404L855.87 504.291L858.427 503.461C862.444 502.155 865.148 500.537 866.539 498.604C867.891 496.55 868.702 493.662 868.973 489.94L875.089 372.073C875.659 371.754 876.477 370.545 877.546 368.449C878.574 366.23 879.481 364.051 880.267 361.912C881.013 359.651 881.346 358.398 881.267 358.155C881.188 357.912 881.067 357.749 880.906 357.667L883.225 356.105L966.355 459.106C968.604 461.471 970.635 463.166 972.449 464.192C974.345 465.056 976.632 465.054 979.31 464.183L985.884 462.047L987.545 467.16ZM918.754 426.929L882.064 381.112L878.946 439.863L918.754 426.929Z" fill="black"/>
<path d="M515.809 453.367L506.596 466.09L502.418 457.055L530.616 383.132L515.809 453.367ZM501.466 456.748L463.788 482.096L530.325 381.089L501.466 456.748ZM516.881 453.129L532.299 380L541.925 455.517L516.881 453.129Z" fill="black" stroke="white"/>
</svg>
